<?xml version="1.0" encoding="UTF-8" standalone="no"?>
<!-- Generator: Adobe Illustrator 19.0.0, SVG Export Plug-In . SVG Version: 6.00 Build 0)  -->

<svg
   version="1.1"
   id="Layer_1"
   x="0px"
   y="0px"
   viewBox="0 0 460 460"
   style="enable-background:new 0 0 460 460;"
   xml:space="preserve"
   sodipodi:docname="info.svg"
   inkscape:version="1.1 (c68e22c387, 2021-05-23)"
   xmlns:inkscape="http://www.inkscape.org/namespaces/inkscape"
   xmlns:sodipodi="http://sodipodi.sourceforge.net/DTD/sodipodi-0.dtd"
   xmlns="http://www.w3.org/2000/svg"
   xmlns:svg="http://www.w3.org/2000/svg"><defs
   id="defs40" /><sodipodi:namedview
   id="namedview38"
   pagecolor="#ffffff"
   bordercolor="#666666"
   borderopacity="1.0"
   inkscape:pageshadow="2"
   inkscape:pageopacity="0.0"
   inkscape:pagecheckerboard="0"
   showgrid="false"
   inkscape:zoom="1.6934783"
   inkscape:cx="229.70475"
   inkscape:cy="230"
   inkscape:window-width="1920"
   inkscape:window-height="1017"
   inkscape:window-x="1912"
   inkscape:window-y="1076"
   inkscape:window-maximized="1"
   inkscape:current-layer="Layer_1" />
<g
   id="XMLID_1055_"
   style="fill:#0076ff;fill-opacity:1">
	<g
   id="g4"
   style="fill:#0076ff;fill-opacity:1">
		<path
   d="M230,0C102.975,0,0,102.975,0,230s102.975,230,230,230s230-102.974,230-230S357.025,0,230,0z M268.333,377.36    c0,8.676-7.034,15.71-15.71,15.71h-43.101c-8.676,0-15.71-7.034-15.71-15.71V202.477c0-8.676,7.033-15.71,15.71-15.71h43.101    c8.676,0,15.71,7.033,15.71,15.71V377.36z M230,157c-21.539,0-39-17.461-39-39s17.461-39,39-39s39,17.461,39,39    S251.539,157,230,157z"
   id="path2"
   style="fill:#0076ff;fill-opacity:1" />
	</g>
</g>
<g
   id="g7">
</g>
<g
   id="g9">
</g>
<g
   id="g11">
</g>
<g
   id="g13">
</g>
<g
   id="g15">
</g>
<g
   id="g17">
</g>
<g
   id="g19">
</g>
<g
   id="g21">
</g>
<g
   id="g23">
</g>
<g
   id="g25">
</g>
<g
   id="g27">
</g>
<g
   id="g29">
</g>
<g
   id="g31">
</g>
<g
   id="g33">
</g>
<g
   id="g35">
</g>
</svg>
